<svg id="visual" viewBox="0 0 960 540" width="960" height="540" xmlns="http://www.w3.org/2000/svg" xmlns:xlink="http://www.w3.org/1999/xlink" version="1.1"><path d="M0 39L13.3 43.5C26.7 48 53.3 57 80 65C106.7 73 133.3 80 160 86.3C186.7 92.7 213.3 98.3 240 93.8C266.7 89.3 293.3 74.7 320 68.3C346.7 62 373.3 64 400 63.2C426.7 62.3 453.3 58.7 480 54.2C506.7 49.7 533.3 44.3 560 42.5C586.7 40.7 613.3 42.3 640 54C666.7 65.7 693.3 87.3 720 94.5C746.7 101.7 773.3 94.3 800 83.5C826.7 72.7 853.3 58.3 880 51.2C906.7 44 933.3 44 946.7 44L960 44L960 0L946.7 0C933.3 0 906.7 0 880 0C853.3 0 826.7 0 800 0C773.3 0 746.7 0 720 0C693.3 0 666.7 0 640 0C613.3 0 586.7 0 560 0C533.3 0 506.7 0 480 0C453.3 0 426.7 0 400 0C373.3 0 346.7 0 320 0C293.3 0 266.7 0 240 0C213.3 0 186.7 0 160 0C133.3 0 106.7 0 80 0C53.3 0 26.7 0 13.3 0L0 0Z" fill="#ffcf8e"></path><path d="M0 136L13.3 140.5C26.7 145 53.3 154 80 155.8C106.7 157.7 133.3 152.3 160 162.2C186.7 172 213.3 197 240 195.2C266.7 193.3 293.3 164.7 320 164.7C346.7 164.7 373.3 193.3 400 189.7C426.7 186 453.3 150 480 142C506.7 134 533.3 154 560 165.8C586.7 177.7 613.3 181.3 640 193C666.7 204.7 693.3 224.3 720 226C746.7 227.7 773.3 211.3 800 209.5C826.7 207.7 853.3 220.3 880 217.7C906.7 215 933.3 197 946.7 188L960 179L960 42L946.7 42C933.3 42 906.7 42 880 49.2C853.3 56.3 826.7 70.7 800 81.5C773.3 92.3 746.7 99.7 720 92.5C693.3 85.3 666.7 63.7 640 52C613.3 40.3 586.7 38.7 560 40.5C533.3 42.3 506.7 47.7 480 52.2C453.3 56.7 426.7 60.3 400 61.2C373.3 62 346.7 60 320 66.3C293.3 72.7 266.7 87.3 240 91.8C213.3 96.3 186.7 90.7 160 84.3C133.3 78 106.7 71 80 63C53.3 55 26.7 46 13.3 41.5L0 37Z" fill="#feca83"></path><path d="M0 163L13.3 165.7C26.7 168.3 53.3 173.7 80 176.3C106.7 179 133.3 179 160 188C186.7 197 213.3 215 240 212.3C266.7 209.7 293.3 186.3 320 189C346.7 191.7 373.3 220.3 400 218.5C426.7 216.7 453.3 184.3 480 174.5C506.7 164.7 533.3 177.3 560 189C586.7 200.7 613.3 211.3 640 224C666.7 236.7 693.3 251.3 720 253.2C746.7 255 773.3 244 800 240.3C826.7 236.7 853.3 240.3 880 233.2C906.7 226 933.3 208 946.7 199L960 190L960 177L946.7 186C933.3 195 906.7 213 880 215.7C853.3 218.3 826.7 205.7 800 207.5C773.3 209.3 746.7 225.7 720 224C693.3 222.3 666.7 202.7 640 191C613.3 179.3 586.7 175.7 560 163.8C533.3 152 506.7 132 480 140C453.3 148 426.7 184 400 187.7C373.3 191.3 346.7 162.7 320 162.7C293.3 162.7 266.7 191.3 240 193.2C213.3 195 186.7 170 160 160.2C133.3 150.3 106.7 155.7 80 153.8C53.3 152 26.7 143 13.3 138.5L0 134Z" fill="#fdc578"></path><path d="M0 233L13.3 232.2C26.7 231.3 53.3 229.7 80 227.8C106.7 226 133.3 224 160 238.3C186.7 252.7 213.3 283.3 240 281.7C266.7 280 293.3 246 320 239.7C346.7 233.3 373.3 254.7 400 254.7C426.7 254.7 453.3 233.3 480 231.7C506.7 230 533.3 248 560 257.8C586.7 267.7 613.3 269.3 640 277.3C666.7 285.3 693.3 299.7 720 303.3C746.7 307 773.3 300 800 297.3C826.7 294.7 853.3 296.3 880 283.7C906.7 271 933.3 244 946.7 230.5L960 217L960 188L946.7 197C933.3 206 906.7 224 880 231.2C853.3 238.3 826.7 234.7 800 238.3C773.3 242 746.7 253 720 251.2C693.3 249.3 666.7 234.7 640 222C613.3 209.3 586.7 198.7 560 187C533.3 175.3 506.7 162.7 480 172.5C453.3 182.3 426.7 214.7 400 216.5C373.3 218.3 346.7 189.7 320 187C293.3 184.3 266.7 207.7 240 210.3C213.3 213 186.7 195 160 186C133.3 177 106.7 177 80 174.3C53.3 171.7 26.7 166.3 13.3 163.7L0 161Z" fill="#fcc06c"></path><path d="M0 266L13.3 268.7C26.7 271.3 53.3 276.7 80 273.8C106.7 271 133.3 260 160 270.8C186.7 281.7 213.3 314.3 240 316.2C266.7 318 293.3 289 320 284.5C346.7 280 373.3 300 400 300C426.7 300 453.3 280 480 279C506.7 278 533.3 296 560 305C586.7 314 613.3 314 640 317.7C666.7 321.3 693.3 328.7 720 331.3C746.7 334 773.3 332 800 333.8C826.7 335.7 853.3 341.3 880 330.7C906.7 320 933.3 293 946.7 279.5L960 266L960 215L946.7 228.5C933.3 242 906.7 269 880 281.7C853.3 294.3 826.7 292.7 800 295.3C773.3 298 746.7 305 720 301.3C693.3 297.7 666.7 283.3 640 275.3C613.3 267.3 586.7 265.7 560 255.8C533.3 246 506.7 228 480 229.7C453.3 231.3 426.7 252.7 400 252.7C373.3 252.7 346.7 231.3 320 237.7C293.3 244 266.7 278 240 279.7C213.3 281.3 186.7 250.7 160 236.3C133.3 222 106.7 224 80 225.8C53.3 227.7 26.7 229.3 13.3 230.2L0 231Z" fill="#fbbb61"></path><path d="M0 411L13.3 411C26.7 411 53.3 411 80 405.7C106.7 400.3 133.3 389.7 160 391.5C186.7 393.3 213.3 407.7 240 412.2C266.7 416.7 293.3 411.3 320 408.7C346.7 406 373.3 406 400 405.2C426.7 404.3 453.3 402.7 480 400.8C506.7 399 533.3 397 560 397.8C586.7 398.7 613.3 402.3 640 403.3C666.7 404.3 693.3 402.7 720 400C746.7 397.3 773.3 393.7 800 394.5C826.7 395.3 853.3 400.7 880 405.2C906.7 409.7 933.3 413.3 946.7 415.2L960 417L960 264L946.7 277.5C933.3 291 906.7 318 880 328.7C853.3 339.3 826.7 333.7 800 331.8C773.3 330 746.7 332 720 329.3C693.3 326.7 666.7 319.3 640 315.7C613.3 312 586.7 312 560 303C533.3 294 506.7 276 480 277C453.3 278 426.7 298 400 298C373.3 298 346.7 278 320 282.5C293.3 287 266.7 316 240 314.2C213.3 312.3 186.7 279.7 160 268.8C133.3 258 106.7 269 80 271.8C53.3 274.7 26.7 269.3 13.3 266.7L0 264Z" fill="#f3b457"></path><path d="M0 444L13.3 441.3C26.7 438.7 53.3 433.3 80 427C106.7 420.7 133.3 413.3 160 416C186.7 418.7 213.3 431.3 240 434C266.7 436.7 293.3 429.3 320 426.7C346.7 424 373.3 426 400 425.2C426.7 424.3 453.3 420.7 480 422.3C506.7 424 533.3 431 560 436.3C586.7 441.7 613.3 445.3 640 444.5C666.7 443.7 693.3 438.3 720 431.2C746.7 424 773.3 415 800 413.2C826.7 411.3 853.3 416.7 880 422C906.7 427.3 933.3 432.7 946.7 435.3L960 438L960 415L946.7 413.2C933.3 411.3 906.7 407.7 880 403.2C853.3 398.7 826.7 393.3 800 392.5C773.3 391.7 746.7 395.3 720 398C693.3 400.7 666.7 402.3 640 401.3C613.3 400.3 586.7 396.7 560 395.8C533.3 395 506.7 397 480 398.8C453.3 400.7 426.7 402.3 400 403.2C373.3 404 346.7 404 320 406.7C293.3 409.3 266.7 414.7 240 410.2C213.3 405.7 186.7 391.3 160 389.5C133.3 387.7 106.7 398.3 80 403.7C53.3 409 26.7 409 13.3 409L0 409Z" fill="#e6a950"></path><path d="M0 465L13.3 465C26.7 465 53.3 465 80 463.3C106.7 461.7 133.3 458.3 160 459.3C186.7 460.3 213.3 465.7 240 464.7C266.7 463.7 293.3 456.3 320 456.3C346.7 456.3 373.3 463.7 400 461.8C426.7 460 453.3 449 480 450.8C506.7 452.7 533.3 467.3 560 473.7C586.7 480 613.3 478 640 478C666.7 478 693.3 480 720 478.2C746.7 476.3 773.3 470.7 800 465.2C826.7 459.7 853.3 454.3 880 455.3C906.7 456.3 933.3 463.7 946.7 467.3L960 471L960 436L946.7 433.3C933.3 430.7 906.7 425.3 880 420C853.3 414.7 826.7 409.3 800 411.2C773.3 413 746.7 422 720 429.2C693.3 436.3 666.7 441.7 640 442.5C613.3 443.3 586.7 439.7 560 434.3C533.3 429 506.7 422 480 420.3C453.3 418.7 426.7 422.3 400 423.2C373.3 424 346.7 422 320 424.7C293.3 427.3 266.7 434.7 240 432C213.3 429.3 186.7 416.7 160 414C133.3 411.3 106.7 418.7 80 425C53.3 431.3 26.7 436.7 13.3 439.3L0 442Z" fill="#da9e4a"></path><path d="M0 503L13.3 506.7C26.7 510.3 53.3 517.7 80 518.7C106.7 519.7 133.3 514.3 160 509.8C186.7 505.3 213.3 501.7 240 501.7C266.7 501.7 293.3 505.3 320 510.7C346.7 516 373.3 523 400 522C426.7 521 453.3 512 480 511.2C506.7 510.3 533.3 517.7 560 520.3C586.7 523 613.3 521 640 519.2C666.7 517.3 693.3 515.7 720 517.5C746.7 519.3 773.3 524.7 800 522.8C826.7 521 853.3 512 880 508.5C906.7 505 933.3 507 946.7 508L960 509L960 469L946.7 465.3C933.3 461.7 906.7 454.3 880 453.3C853.3 452.3 826.7 457.7 800 463.2C773.3 468.7 746.7 474.3 720 476.2C693.3 478 666.7 476 640 476C613.3 476 586.7 478 560 471.7C533.3 465.3 506.7 450.7 480 448.8C453.3 447 426.7 458 400 459.8C373.3 461.7 346.7 454.3 320 454.3C293.3 454.3 266.7 461.7 240 462.7C213.3 463.7 186.7 458.3 160 457.3C133.3 456.3 106.7 459.7 80 461.3C53.3 463 26.7 463 13.3 463L0 463Z" fill="#cd9343"></path><path d="M0 541L13.3 541C26.7 541 53.3 541 80 541C106.7 541 133.3 541 160 541C186.7 541 213.3 541 240 541C266.7 541 293.3 541 320 541C346.7 541 373.3 541 400 541C426.7 541 453.3 541 480 541C506.7 541 533.3 541 560 541C586.7 541 613.3 541 640 541C666.7 541 693.3 541 720 541C746.7 541 773.3 541 800 541C826.7 541 853.3 541 880 541C906.7 541 933.3 541 946.7 541L960 541L960 507L946.7 506C933.3 505 906.7 503 880 506.5C853.3 510 826.7 519 800 520.8C773.3 522.7 746.7 517.3 720 515.5C693.3 513.7 666.7 515.3 640 517.2C613.3 519 586.7 521 560 518.3C533.3 515.7 506.7 508.3 480 509.2C453.3 510 426.7 519 400 520C373.3 521 346.7 514 320 508.7C293.3 503.3 266.7 499.7 240 499.7C213.3 499.7 186.7 503.3 160 507.8C133.3 512.3 106.7 517.7 80 516.7C53.3 515.7 26.7 508.3 13.3 504.7L0 501Z" fill="#c0893c"></path></svg>